<?xml version="1.0" standalone="no"?>
<!DOCTYPE svg PUBLIC "-//W3C//DTD SVG 20010904//EN"
 "http://www.w3.org/TR/2001/REC-SVG-20010904/DTD/svg10.dtd">
<svg version="1.0" xmlns="http://www.w3.org/2000/svg" width="300pt" height="300pt" viewBox="0 0 300 300">
  <g transform="translate(0.0,300.0) scale(0.1,-0.1)" fill="#000" stroke="none">
    <path d="M1335 2613 c-46 -12 -164 -68 -215 -101 -172 -112 -281 -304 -297
-523 l-6 -76 138 -6 c76 -4 189 -7 251 -7 l112 0 6 28 c3 15 8 45 12 67 9 55
36 90 84 109 50 20 96 12 133 -23 39 -35 57 -73 57 -116 0 -32 -10 -47 -82
-123 -46 -48 -88 -91 -94 -97 -6 -5 -24 -28 -40 -50 -16 -22 -41 -53 -56 -69
-14 -16 -29 -42 -32 -58 -3 -16 -16 -52 -30 -81 -46 -101 -59 -152 -67 -272
-4 -66 -11 -132 -15 -147 -5 -24 -3 -28 21 -34 15 -4 70 -4 122 0 58 4 110 2
134 -4 22 -6 87 -14 145 -18 100 -7 104 -7 104 13 0 11 5 83 11 160 12 162 17
174 115 264 36 32 79 78 97 101 18 23 47 61 64 84 74 95 106 192 107 326 1
212 -71 368 -238 518 -53 47 -99 73 -191 111 -51 20 -80 24 -195 27 -74 1
-144 0 -155 -3z m306 -191 c74 -36 220 -185 258 -262 45 -92 52 -196 21 -300
-33 -113 -65 -163 -164 -257 -174 -165 -206 -222 -209 -372 l-2 -91 -79 0 -78
0 4 118 c3 97 8 124 26 157 12 22 22 47 22 55 0 25 38 71 169 205 173 179 193
229 155 395 -20 89 -67 149 -148 190 -76 38 -174 41 -263 9 -69 -25 -104 -55
-146 -126 l-32 -53 -78 0 -79 0 7 37 c9 52 24 76 86 148 55 63 173 144 240
164 19 6 81 9 139 8 84 -3 114 -8 151 -25z"/>
    <path d="M1465 876 c-39 -19 -85 -30 -111 -27 -16 2 -36 -17 -80 -76 -85 -113
-107 -204 -97 -415 4 -87 2 -142 -7 -172 -20 -71 9 -115 43 -66 10 15 13 44
10 118 -4 71 -1 102 9 114 12 16 16 15 54 -20 47 -42 64 -96 42 -132 -14 -22
-5 -46 26 -64 14 -9 21 -6 37 13 19 24 19 24 1 45 -26 29 -38 51 -24 42 8 -4
12 0 12 12 0 24 30 52 57 52 11 0 30 -11 42 -24 18 -19 22 -35 22 -84 0 -34
-4 -69 -9 -78 -12 -21 4 -64 23 -64 20 0 33 23 30 50 -1 14 -3 25 -5 25 -2 0
-3 58 -1 102 2 48 45 93 85 90 19 -1 32 -8 33 -17 1 -8 4 -44 6 -80 5 -84 4
-80 27 -80 29 0 38 30 14 49 -18 15 -28 61 -14 61 4 0 10 22 13 49 7 59 41
131 62 131 9 0 21 -11 27 -26 9 -20 9 -30 -4 -52 -8 -15 -13 -33 -11 -39 7
-20 48 -15 68 7 14 16 15 22 5 35 -7 8 -17 12 -24 8 -6 -4 -5 1 2 10 8 9 12
29 11 44 -2 15 0 33 3 38 3 6 9 28 13 50 l8 40 -29 -25 c-28 -24 -28 -23 2 10
18 19 35 45 38 57 9 27 -12 112 -33 137 -9 11 -10 16 -3 12 6 -4 12 -3 12 1 0
12 -29 50 -30 39 0 -5 -7 -3 -15 4 -8 7 -12 16 -10 21 8 12 -72 50 -111 52
-19 1 -34 5 -34 8 0 4 -23 9 -51 13 -29 4 -64 9 -78 12 -14 2 -39 -2 -56 -10z
m170 -106 l20 -25 -22 19 c-13 11 -23 24 -23 29 0 6 1 8 3 6 1 -2 11 -15 22
-29z m-270 0 c-3 -5 -12 -10 -18 -10 -7 0 -6 4 3 10 19 12 23 12 15 0z m331
-11 c19 -22 19 -22 -3 -8 -13 8 -23 17 -23 21 0 12 6 9 26 -13z m-136 -9 c0
-4 11 -20 25 -36 56 -63 72 -143 42 -201 -16 -30 -39 -48 -99 -75 -16 -7 -28
-15 -28 -19 0 -11 -84 10 -95 24 -6 7 -19 17 -30 23 -10 6 -23 19 -29 30 -6
10 -15 22 -20 25 -4 4 -7 39 -4 77 3 63 7 75 33 102 38 40 78 58 135 62 49 3
70 0 70 -12z m171 -37 c13 -16 12 -17 -3 -4 -17 13 -22 21 -14 21 2 0 10 -8
17 -17z m44 -33 c10 -11 16 -20 13 -20 -3 0 -13 9 -23 20 -10 11 -16 20 -13
20 3 0 13 -9 23 -20z m36 -113 c-10 -9 -11 -8 -5 6 3 10 9 15 12 12 3 -3 0
-11 -7 -18z m-171 -81 c0 -2 -8 -10 -17 -17 -16 -13 -17 -12 -4 4 13 16 21 21
21 13z m-392 -69 c17 -18 19 -24 7 -24 -8 0 -13 3 -10 5 3 3 -2 14 -12 24 -24
27 -10 22 15 -5z m462 20 c0 -2 -10 -12 -22 -23 l-23 -19 19 23 c18 21 26 27
26 19z m-369 -104 c13 -16 12 -17 -3 -4 -10 7 -18 15 -18 17 0 8 8 3 21 -13z
m314 7 c3 -6 -1 -7 -9 -4 -18 7 -21 14 -7 14 6 0 13 -4 16 -10z m-125 -24 c-7
-7 -13 -7 -20 0 -6 6 -3 10 10 10 13 0 16 -4 10 -10z m-29 -13 c13 -16 12 -17
-3 -4 -17 13 -22 21 -14 21 2 0 10 -8 17 -17z"/>
  </g>
</svg>
